# xmcd
#
# Track frame offsets: 
#        150
#        14632
#        27103
#        40018
#
# Disc length: 678 seconds
#
# Revision: 0
# Processed by: cddbd v1.5.2PL0 Copyright (c) Steve Scherf et al.
# Submitted via: ExactAudioCopy v1.3
#
DISCID=2602a404
DTITLE=Nino Ferrer - Agata CDEp
DYEAR=1969
DGENRE=soul
TTITLE0=Agata
TTITLE1=Un Premier Jour Sans Toi
TTITLE2=Justine
TTITLE3=Les Hommes A Tout Faire
EXTD=
EXTT0=
EXTT1=
EXTT2=
EXTT3=
PLAYORDER=
